<?xml version="1.0" standalone="no"?>
<!DOCTYPE svg PUBLIC "-//W3C//DTD SVG 1.1//EN" "http://www.w3.org/Graphics/SVG/1.1/DTD/svg11.dtd" >
<!--
2013-9-30: Created.
-->
<svg>
<metadata>
Created by iconfont
</metadata>
<defs>

<font id="iconfont" horiz-adv-x="1024" >
  <font-face
    font-family="iconfont"
    font-weight="500"
    font-stretch="normal"
    units-per-em="1024"
    ascent="896"
    descent="-128"
  />
    <missing-glyph />
    
    <glyph glyph-name="shijian" unicode="&#59023;" d="M874.179108 746.080709C777.456788 842.744969 648.909794 896 512.10296 896 375.343491 896 246.779689 842.744969 150.097095 746.070014 53.379358 649.364501 0.118216 520.774725 0.118216 383.996921c-0.024446-136.793083 53.195443-265.353829 149.900956-362.11893 96.670371-96.613839 225.246396-149.878037 361.98753-149.878037 136.806834 0 265.42564 53.297812 362.172407 149.978879C1073.767443 221.58703 1073.798001 546.396117 874.179108 746.080709L874.179108 746.080709 874.179108 746.080709zM826.994433 69.172676c-84.130878-84.118655-195.994709-130.492014-314.986203-130.492014-118.90746 0-230.743788 46.350441-314.819662 130.392701C113.111166 153.164515 66.820314 265.006955 66.838649 383.996921c0 118.97316 46.313771 230.826295 130.420203 314.897585 84.094208 84.075874 195.893867 130.372838 314.844108 130.372838 118.954825 0 230.77893-46.296964 314.891473-130.378949C1000.583984 525.25759 1000.583984 242.74542 826.994433 69.172676L826.994433 69.172676 826.994433 69.172676zM733.350836 258.524066l-176.979966 102.351112L556.37087 639.999989c0 23.557196-19.111001 42.666669-42.674308 42.666669-23.544973 0-42.655973-19.109473-42.655973-42.666669l0-298.669736c0-15.826011 19.671741-29.095841 32.467921-36.437411 3.538621-5.329323 13.268303-10.15291 19.199619-13.564716l176.000581-106.673547c20.388327-11.769431 42.495544-4.774694 54.271086 15.619744 11.775542 20.40055 0.811316 46.469617-19.630487 58.245159l0 0L733.349308 258.524066zM733.350836 258.524066"  horiz-adv-x="1024" />

    
    <glyph glyph-name="sanx-up" unicode="&#58886;" d="M234.88884163 518.52193155l279.65492248-279.65492248 278.8075161 278.8075161z"  horiz-adv-x="1024" />

    
    <glyph glyph-name="arrUp-fill" unicode="&#58880;" d="M789.1111583709719 249.4780684453484l-279.6549224853515 279.65492248535156-278.8075160980225-278.8075160980225z"  horiz-adv-x="1024" />

    
    <glyph glyph-name="jingqingweizhi" unicode="&#58901;" d="M520.868627 892.727225c-211.811394 0-383.54306-171.408277-383.54306-382.791898s383.54306-637.937374 383.54306-637.937374S904.407594 298.54966 904.407594 509.935327 732.675928 892.727225 520.868627 892.727225z m0.002047-696.968088c-172.617915 0-312.536732 139.683439-312.536732 311.922703 0 172.272012 139.918817 311.924749 312.536732 311.92475 172.611774 0 312.528545-139.646597 312.528545-311.92475 0-172.239263-139.91677-311.922703-312.528545-311.922703zM426.791178 386.288282h185.367206v147.870494c0 42.1531-41.682344 76.65949-92.681556 76.65949-50.95009 0-92.683603-34.50639-92.683603-76.65949l-0.002047-147.870494zM649.319427 365.186148h-259.693385c-12.72473 0-23.142758-7.184141-23.142758-19.908871 0-12.72473 10.420074-19.908871 23.142758-19.908872h259.640169c12.72473 0 23.19802 7.184141 23.198021 19.908872 0 12.671514-10.420074 19.908871-23.144805 19.908871zM519.472734 646.399207c10.839661 0 19.689867 8.84816 19.689868 19.689867V705.466762c0 10.837614-8.84816 19.687821-19.689868 19.687821-10.837614 0-19.687821-8.84816-19.68782-19.687821v-39.375641c0-10.841708 8.84816-19.691914 19.68782-19.691914zM631.422525 613.976422l26.286587 29.323985c7.225076 8.064249 6.54555 20.58021-1.518699 27.805285-8.064249 7.227123-20.576116 6.54555-27.805286-1.518699l-26.286587-29.323984c-7.225076-8.064249-6.54555-20.576116 1.518699-27.805285 8.062202-7.276245 20.578163-6.54555 27.805286 1.518698zM407.834052 613.976422c7.225076-8.064249 19.741036-8.743775 27.805286-1.518698 8.062202 7.227123 8.743775 19.741036 1.516652 27.805285L410.869403 669.586993c-7.225076 8.064249-19.73899 8.743775-27.803239 1.518699-8.064249-7.225076-8.745822-19.741036-1.518699-27.805285l26.286587-29.323985zM398.799637 533.442409c3.821308 10.158089-1.359051 21.519674-11.519186 25.343029L350.418235 572.611327c-10.158089 3.821308-21.519674-1.359051-25.343028-11.521233-3.821308-10.158089 1.363145-21.519674 11.519186-25.343029l36.864262-13.823843c10.104873-3.823355 21.519674 1.361098 25.340982 11.519187zM716.660001 561.088047c-3.821308 10.160135-15.18494 15.344588-25.343028 11.521233l-36.864262-13.823842c-10.158089-3.821308-15.344588-15.18494-11.521234-25.343029 3.821308-10.158089 15.186987-15.342541 25.345076-11.519187l36.864262 13.823843c10.158089 3.770139 15.340494 15.18494 11.519186 25.340982z"  horiz-adv-x="1024" />

    
    <glyph glyph-name="touxiang" unicode="&#58965;" d="M607.837-94.571H416.135c-180.466 0-323.044 0-323.044 91.704v18.879c0 175.42 144.896 318.091 323.044 318.091h191.702c178.148 0 323.072-142.708 323.072-318.091v-18.88c0-91.703-149.709-91.703-323.072-91.703zM502.402 358.38c-141.07 0-255.85 113.106-255.85 252.1 0 138.985 114.78 252.1 255.85 252.1s255.851-113.078 255.851-252.1c0.01-139.031-114.78-252.1-255.85-252.1z"  horiz-adv-x="1024" />

    
    <glyph glyph-name="location" unicode="&#58881;" d="M512.103132 575.879021a106.221743 106.221743 0 1 0-75.507022-31.354611A106.221743 106.221743 0 0 0 512.103132 575.879021m0 63.989002a170.850635 170.850635 0 1 1 120.939214-49.911422A169.570855 169.570855 0 0 1 512.103132 639.868023zM805.172761 771.685367a407.609942 407.609942 0 0 1-586.139257 0 431.285873 431.285873 0 0 1 0-599.576948L512.103132-128l293.069629 300.108419a431.285873 431.285873 0 0 1 0 599.576948z m-44.152411-557.344207l-248.917218-255.956007-248.917217 255.956007a365.377201 365.377201 0 0 0 0 508.712565 346.82039 346.82039 0 0 0 497.834435 0 365.377201 365.377201 0 0 0 0-508.712565z"  horiz-adv-x="1024" />

    
    <glyph glyph-name="yuyin" unicode="&#58921;" d="M358.66412 613.801455a39.796215 39.796215 0 0 1-47.357496-64.071907c62.082096-45.765648 96.10786-105.658952 96.10786-168.536972S375.378531 262.201892 315.684208 218.227074a39.796215 39.796215 0 0 1 23.678748-71.832169 39.796215 39.796215 0 0 1 23.678748 7.959243c79.592431 59.694323 124.164192 139.286754 124.164192 226.838428s-45.765648 171.322707-128.541776 232.608879zM524.81332 736.771761a39.796215 39.796215 0 1 1-47.357497-63.872926c106.852838-79.592431 165.751237-183.261572 165.751237-293.099127s-56.510626-207.935225-159.184861-283.945996a39.796215 39.796215 0 0 1 47.357496-63.872926c123.368268 91.332314 191.220815 214.899563 191.220815 347.818922S652.559171 641.857787 524.81332 736.771761zM722.60051 888.19636a39.796215 39.796215 0 1 1-47.357496-64.071907c162.368559-119.388646 251.910043-278.573508 251.910043-446.911499 0-163.960407-85.959825-318.369723-242.15997-433.380785a39.796215 39.796215 0 0 1 23.678748-71.832169 39.796215 39.796215 0 0 1 23.678748 7.959243c176.894177 130.929549 274.394905 307.425764 274.394905 497.452693 0 193.608588-100.883406 375.07933-284.144978 510.784424zM40.493378 440.289956a79.592431 79.592431 0 1 1 112.62329 0 79.592431 79.592431 0 0 1-112.62329 0z"  horiz-adv-x="1024" />

    
    <glyph glyph-name="shipin" unicode="&#58912;" d="M624.32 411.52a32 32 0 0 0 0-55.04l-160-96A32 32 0 0 0 416 288V480a32 32 0 0 0 48.32 27.52zM480 423.36v-78.72L545.92 384zM896 128V640H128v-512z m0-64H128a64 64 0 0 0-64 64V640a64 64 0 0 0 64 64h768a64 64 0 0 0 64-64v-512a64 64 0 0 0-64-64zM192 672a32 32 0 0 0 64 0v-544a32 32 0 0 0-64 0zM224 512a32 32 0 0 0 0-64H96a32 32 0 0 0 0 64z m0-192a32 32 0 0 0 0-64H96a32 32 0 0 0 0 64z m544 352a32 32 0 0 0 64 0v-544a32 32 0 0 0-64 0zM800 448a32 32 0 0 0 0 64h128a32 32 0 0 0 0-64z m0-192a32 32 0 0 0 0 64h128a32 32 0 0 0 0-64z"  horiz-adv-x="1024" />

    
    <glyph glyph-name="datouzhen" unicode="&#58994;" d="M556.246914 95.943563V469.784832c90.299824 12.641975 160.733686 92.10582 160.733686 186.017637 1.805996 104.747795-84.881834 189.62963-187.823634 189.62963S341.333333 760.550265 341.333333 655.802469c0-93.911817 70.433862-173.375661 160.733686-186.017637v-373.841269c-90.299824-5.417989-171.569665-32.507937-171.569665-84.881835 0-59.597884 99.329806-84.881834 198.659612-84.881834s198.659612 27.089947 198.659612 84.881834c3.611993 54.179894-79.463845 81.269841-171.569664 84.881835z m-25.283951-117.389771c-84.881834 0-133.643739 19.865961-144.479718 32.507936 9.029982 10.835979 48.761905 27.089947 115.583774 30.70194v-16.253968c0-16.253968 10.835979-27.089947 27.089947-27.089947s27.089947 10.835979 27.089948 27.089947v16.253968c68.627866-3.611993 110.165785-21.671958 119.195767-30.70194-9.029982-10.835979-57.791887-32.507937-144.479718-32.507936z"  horiz-adv-x="1024" />

    
    <glyph glyph-name="tiaopai" unicode="&#59028;" d="M636.8 595.2H64v-150.4h857.6c35.2 0 51.2 41.6 28.8 67.2l-284.8 284.8c-9.6 9.6-25.6 3.2-25.6-9.6v-192z m0 0M387.2 172.8H960v150.4H102.4c-35.2 0-51.2-41.6-28.8-67.2l284.8-284.8c9.6-9.6 25.6-3.2 25.6 9.6v192z m0 0"  horiz-adv-x="1024" />

    
    <glyph glyph-name="qidongyuan" unicode="&#58984;" d="M303.786667 344.746667h-39.253334v-39.253334h39.253334v39.253334z m387.413333 310.613333H343.04v-39.253333h348.16v39.253333zM343.04 305.493333h194.56v39.253334H343.04v-39.253334z m-117.76-230.4c-44.373333 0-78.506667 34.133333-78.506667 78.506667V698.026667c0 44.373333 34.133333 78.506667 78.506667 78.506666h465.92c44.373333 0 78.506667-34.133333 78.506667-78.506666v-276.48c13.653333-1.706667 25.6-5.12 39.253333-8.533334V732.16c0 44.373333-34.133333 78.506667-78.506667 78.506667H186.026667C143.36 810.666667 107.52 776.533333 107.52 732.16V110.933333c0-44.373333 34.133333-78.506667 78.506667-78.506666h298.666666c-6.826667 13.653333-10.24 25.6-15.36 39.253333l-244.053333 3.413333z m465.92 426.666667H343.04v-39.253333h348.16v39.253333z m-426.666667-349.866667h39.253334v39.253334h-39.253334v-39.253334z m465.92 192.853334c-107.52 0-194.56-87.04-194.56-194.56S624.64-42.666667 730.453333-42.666667s194.56 87.04 194.56 194.56-87.04 192.853333-194.56 192.853334z m0-348.16c-85.333333 0-155.306667 69.973333-155.306666 155.306666s69.973333 155.306667 155.306666 155.306667 155.306667-69.973333 155.306667-155.306667-69.973333-155.306667-155.306667-155.306666z m-39.253333 232.106666v-155.306666l155.306667 78.506666-155.306667 76.8z m-348.16-76.8h155.306667v39.253334h-155.306667v-39.253334z m-39.253333 349.866667h-39.253334v-39.253333h39.253334v39.253333z m0 153.6h-39.253334v-39.253333h39.253334v39.253333z"  horiz-adv-x="1024" />

    
    <glyph glyph-name="dianhua" unicode="&#58891;" d="M731.5 444.3c0-21.5 14.3-35.9 35.9-35.9 21.5 0 35.9 14.3 35.9 35.9C803 563 706.8 659.2 588 659.6c-21.5 0-35.9-14.3-35.9-35.9s14.4-35.9 35.9-35.9c79.2-0.1 143.3-64.3 143.5-143.5z m143.6 0c0-21.5 14.3-35.9 35.9-35.9s35.9 14.3 35.9 35.9c0 197.3-161.5 358.8-358.8 358.8-21.5 0-35.9-14.4-35.9-35.9s14.4-35.9 35.9-35.9c157.8 0.1 287-129.1 287-287zM390.7 569.9c39.5 39.4 43.1 100.5 7.2 143.5L286.7 853.3c-35.9 46.6-104 53.8-150.7 18-3.6-3.6-7.1-3.6-7.1-7.2L32 767.2c-93.3-93.3 39.5-344.4 279.9-584.8C552.2-58 799.7-187.2 893-97.5l96.9 96.9c43.1 43.1 43.1 111.2 0 150.7l-7.1 7.2-140 111.2c-43 35.9-104 32.3-143.5-7.2l-61-61c-64.6 39.5-122 82.6-172.3 132.8-50.2 50.3-93.2 107.7-132.7 172.3l57.4 64.5z m-50.2 96.9c10.8-14.4 10.8-35.9-3.6-46.7L258 537.6c-11.2-11.4-14-28.6-7.1-43.1 42.3-77.7 95.5-149 157.9-211.6 62.7-62.4 134-115.6 211.6-157.9 14.4-6.9 31.6-4 43.1 7.2l82.5 82.5c14.4 14.3 32.3 14.3 46.7 3.6l139.9-114.8s3.6 0 3.6-3.6c13.9-13.2 14.4-35.1 1.2-49l-1.2-1.2-96.9-96.9c-46.6-46.6-269 71.8-480.7 279.9-211.8 208.1-326.7 434.1-280 480.7L179 813.9c14.4 10.8 39.5 10.8 50.3-7.2l111.2-139.9z"  horiz-adv-x="1024" />

    
    <glyph glyph-name="Group18Copy3" unicode="&#58892;" d="M756.628211 193.643789a297.067789 296.96 0 1 1-594.135579 0 297.067789 296.96 0 1 1 594.135579 0Z"  horiz-adv-x="1024" />

    
    <glyph glyph-name="Group13Copy" unicode="&#58893;" d="M387.268267-72.3456a121.002667 55.6544 0 1 1 242.005333 0 121.002667 55.6544 0 1 1-242.005333 0ZM508.270933-84.667733c44.433067 57.514667 73.856 87.3728 88.2688 89.5744 211.5584 32.341333 351.726933 222.788267 351.726934 445.8752C948.266667 696.669867 751.274667 896 508.2624 896 265.258667 896 68.266667 696.661333 68.266667 450.781867c0-215.466667 151.714133-403.7376 352.64-444.919467 18.9184-3.874133 48.042667-34.048 87.355733-90.538667zM430.267733 224c-32.964267 69.128533-15.616 108.885333 10.410667 145.169067 27.7504 41.472 34.696533 81.2288 34.696533 81.2288s22.545067-27.648 13.8752-72.584534c38.161067 43.204267 45.1072 112.3328 39.901867 138.257067 86.741333-60.484267 124.9024-193.5616 74.5984-290.338133 267.153067 152.081067 65.92 378.478933 31.223467 402.670933 12.142933-25.924267 13.8752-69.12-10.410667-89.864533-39.901867 152.081067-138.786133 181.461333-138.786133 181.461333 12.142933-77.7728-41.634133-162.449067-93.678934-226.389333-1.732267 31.104-3.464533 51.84-20.821333 82.944-3.464533-57.028267-46.830933-101.9648-58.973867-158.993067-15.616-77.7728 12.142933-133.077333 117.9648-193.5616z"  horiz-adv-x="1024" />

    
    <glyph glyph-name="Group19Copy3" unicode="&#58894;" d="M133.049379 504.86731a380.998621 379.833379 0 1 1 761.997242 0 380.998621 379.833379 0 1 1-761.997242 0Z"  horiz-adv-x="1024" />

    
    <glyph glyph-name="Group23Copy" unicode="&#58895;" d="M251.682595 579.528649a305.096649 304.985946 0 1 1 610.193297 0 305.096649 304.985946 0 1 1-610.193297 0Z"  horiz-adv-x="1024" />

    
    <glyph glyph-name="Group24Copy2" unicode="&#58896;" d=""  horiz-adv-x="1914" />

    
    <glyph glyph-name="Group25Copy" unicode="&#58898;" d=""  horiz-adv-x="1914" />

    
    <glyph glyph-name="Group26Copy" unicode="&#58904;" d=""  horiz-adv-x="1914" />

    
    <glyph glyph-name="Fire" unicode="&#58903;" d="M11.558567-0.9083580000000211L503.040865 854.115147c32.639815 55.842592 113.279356 55.842592 145.919171 0l491.482299-855.023505c32.639815-55.842592-7.679956-127.091642-72.959586-127.091642H84.518153c-65.279629 0-105.5994 71.24905-72.959586 127.091642zM53.926326 3.3505259999999453L532.597061 832.16909c21.236243 38.551054 77.206834 38.551054 98.443077 0l478.670735-828.818564A56.796768 56.796768 0 0 0 1059.523522-81.45480999999995H104.113678a56.796768 56.796768 0 0 0-50.187352 84.805336zM128.002996 11.63557000000003l447.997455 767.995637L1023.997905 11.63557000000003zM482.910071 332.564656l-2.792712-10.007216c4.887245-22.341691 11.170846-41.890671 18.618076-58.879665 7.214504 20.014432 11.403572 43.054301 12.334476 68.886881H482.910071z m-14.894461-43.054301c-3.025437-6.283601-6.283601-12.101749-9.541764-17.687172l-15.359913 19.316254c13.032653 24.668951 21.876239 57.716036 26.530759 99.373981l23.272595-4.189068c-1.396356-10.705394-3.025437-20.71261-4.654519-30.254373h56.785132v-23.505321h-11.170846c-1.396356-37.236152-8.378134-69.119607-21.178062-95.650366 11.170846-17.919898 24.203499-31.883455 39.09796-41.890671l-14.894461-21.643513c-13.963557 10.239942-26.298032 23.970773-37.003426 41.192493-11.636298-16.988994-26.065306-31.418003-43.287027-43.054301l-13.730831 22.341691c18.152624 11.170846 32.814359 26.065306 43.985205 44.450657-7.214504 15.359913-13.498105 32.348907-18.850802 51.199709zM356.307154 314.179306c9.541764-14.661735 16.988994-27.461662 22.341691-38.399782l-16.988994-11.869023c-6.050875 11.636298-13.963557 24.668951-23.738047 38.632507l18.38535 11.636298z m50.036079-70.981415v-43.519753c0-16.756268-7.679956-25.367129-22.574417-25.367128H361.892577l-5.352697 23.272595c6.516327-0.930904 12.799927-1.629082 18.850802-1.629082 4.654519 0 7.214504 3.258163 7.214504 9.77449v35.60707c-11.636298-13.032653-24.901677-24.901677-39.796137-35.60707l-9.77449 22.341691c18.618076 10.93812 35.141619 23.738047 49.570627 38.399782v61.206925h-44.916108v23.272595h44.916108v37.468878h23.738047v-37.468878h39.09796v-23.272595h-39.09796V267.63411599999995c16.290817-11.170846 32.581633-23.970773 48.87245-38.399782l-13.730831-20.479884c-13.963557 14.429009-25.83258 26.065306-35.141619 34.443441z m18.850802 75.403208l19.083528-9.541764c-5.119971-15.359913-11.170846-28.858018-18.152624-40.26159l-16.523543 11.636298c6.050875 10.705394 11.170846 23.505321 15.592639 38.167056z m-0.232726 71.912319c10.705394-7.44723 19.54898-14.894461 26.99621-22.341692l-15.359912-15.359912c-6.050875 7.44723-14.894461 15.127187-26.298033 23.505321l14.661735 14.196283z m222.125283-92.392203v-24.203499c-6.283601-3.490889-12.334475-6.749053-18.38535-10.007215v-65.163267c0-14.661735-7.912682-22.108965-23.272595-22.108965h-20.479883l-5.119971 22.574417c6.050875-0.930904 11.869023-1.396356 17.454446-1.396355 5.119971 0 7.679956 2.32726 7.679956 6.749052V252.506929c-7.44723-3.025437-15.127187-6.050875-22.574417-8.843586l-5.818148 23.272595c9.541764 2.559985 19.083528 5.818149 28.392565 9.541764V324.651974h-24.901676v23.039869h24.901676v40.261589h23.738047v-40.261589h23.039869v-23.039869h-23.039869v-37.236152c6.283601 3.490889 12.334475 6.981779 18.38535 10.705393z m11.636298 26.298033h19.54898c-4.189067 9.076312-8.378134 16.988994-13.032653 23.738047l17.687172 7.214504c4.654519-7.679956 9.076312-16.058091 12.799927-25.134403l-13.498105-5.818148h37.236152c-3.723615 9.77449-7.912682 18.38535-12.567201 25.83258l17.687172 7.214505c4.654519-8.378134 8.61086-17.454446 12.101749-27.228937l-13.498105-5.818148h23.272595c5.119971 10.93812 9.77449 23.505321 13.963557 37.93433-27.461662-4.421793-60.276021-6.749053-98.443077-6.749053l-7.214504 20.945336c48.406998 0 89.134039 3.258163 122.41385 9.309038l10.239942-17.687173c-7.912682-2.094534-16.290817-3.956341-25.367129-5.585423l19.781706-5.352696a235.518662 235.518662 0 0 0-13.730831-32.814359h14.661735v-20.945336h-77.497742c-0.698178-4.421793-1.16363-8.843586-1.629082-13.032653h84.246794v-21.410788h-87.737683c-0.930904-4.189067-1.629082-8.378134-2.559985-12.334475h77.963193v-18.618076c-4.887245-11.869023-12.567201-22.341691-23.272595-31.650729 11.636298-4.654519 24.901677-8.378134 39.563412-10.705394l-10.93812-21.643513c-18.850802 4.189067-35.141619 10.239942-49.105176 18.152624-13.265379-7.44723-29.090744-13.730831-47.476093-18.850802l-11.170846 20.479883c14.894461 3.025437 27.927114 6.981779 39.09796 11.636298-8.843586 7.214504-16.290817 15.359913-22.341692 24.203499-0.232726-0.232726-0.232726-0.465452-0.232726-0.698178-7.912682-20.479884-19.781706-38.865234-35.60707-55.15605l-14.429009 18.850802c13.730831 13.963557 24.203499 29.556196 31.185277 46.777916 3.258163 8.61086 6.050875 18.38535 8.378135 29.556195h-27.927114v21.410788h31.650729c0.465452 4.421793 1.16363 8.843586 1.629082 13.032653h-25.832581v20.945336z m73.308674-107.752115c8.378134 6.050875 14.894461 12.799927 19.781706 20.247157h-42.821575c6.516327-7.912682 14.196283-14.661735 23.039869-20.247157z"  horiz-adv-x="1152" />

    
    <glyph glyph-name="Group32Copy2" unicode="&#58906;" d="M11.558567-0.908358L503.040865 854.115147c32.639815 55.842592 113.279356 55.842592 145.919171 0l491.482299-855.023505c32.639815-55.842592-7.679956-127.091642-72.959586-127.091642H84.518153c-65.279629 0-105.5994 71.24905-72.959586 127.091642zM53.926326 3.350526L532.597061 832.16909c21.236243 38.551054 77.206834 38.551054 98.443077 0l478.670735-828.818564A56.796768 56.796768 0 0 0 1059.523522-81.45481H104.113678a56.796768 56.796768 0 0 0-50.187352 84.805336zM128.002996 11.63557l447.997455 767.995637L1023.997905 11.63557zM482.910071 332.564656l-2.792712-10.007216c4.887245-22.341691 11.170846-41.890671 18.618076-58.879665 7.214504 20.014432 11.403572 43.054301 12.334476 68.886881H482.910071z m-14.894461-43.054301c-3.025437-6.283601-6.283601-12.101749-9.541764-17.687172l-15.359913 19.316254c13.032653 24.668951 21.876239 57.716036 26.530759 99.373981l23.272595-4.189068c-1.396356-10.705394-3.025437-20.71261-4.654519-30.254373h56.785132v-23.505321h-11.170846c-1.396356-37.236152-8.378134-69.119607-21.178062-95.650366 11.170846-17.919898 24.203499-31.883455 39.09796-41.890671l-14.894461-21.643513c-13.963557 10.239942-26.298032 23.970773-37.003426 41.192493-11.636298-16.988994-26.065306-31.418003-43.287027-43.054301l-13.730831 22.341691c18.152624 11.170846 32.814359 26.065306 43.985205 44.450657-7.214504 15.359913-13.498105 32.348907-18.850802 51.199709zM356.307154 314.179306c9.541764-14.661735 16.988994-27.461662 22.341691-38.399782l-16.988994-11.869023c-6.050875 11.636298-13.963557 24.668951-23.738047 38.632507l18.38535 11.636298z m50.036079-70.981415v-43.519753c0-16.756268-7.679956-25.367129-22.574417-25.367128H361.892577l-5.352697 23.272595c6.516327-0.930904 12.799927-1.629082 18.850802-1.629082 4.654519 0 7.214504 3.258163 7.214504 9.77449v35.60707c-11.636298-13.032653-24.901677-24.901677-39.796137-35.60707l-9.77449 22.341691c18.618076 10.93812 35.141619 23.738047 49.570627 38.399782v61.206925h-44.916108v23.272595h44.916108v37.468878h23.738047v-37.468878h39.09796v-23.272595h-39.09796V267.634116c16.290817-11.170846 32.581633-23.970773 48.87245-38.399782l-13.730831-20.479884c-13.963557 14.429009-25.83258 26.065306-35.141619 34.443441z m18.850802 75.403208l19.083528-9.541764c-5.119971-15.359913-11.170846-28.858018-18.152624-40.26159l-16.523543 11.636298c6.050875 10.705394 11.170846 23.505321 15.592639 38.167056z m-0.232726 71.912319c10.705394-7.44723 19.54898-14.894461 26.99621-22.341692l-15.359912-15.359912c-6.050875 7.44723-14.894461 15.127187-26.298033 23.505321l14.661735 14.196283z m222.125283-92.392203v-24.203499c-6.283601-3.490889-12.334475-6.749053-18.38535-10.007215v-65.163267c0-14.661735-7.912682-22.108965-23.272595-22.108965h-20.479883l-5.119971 22.574417c6.050875-0.930904 11.869023-1.396356 17.454446-1.396355 5.119971 0 7.679956 2.32726 7.679956 6.749052V252.506929c-7.44723-3.025437-15.127187-6.050875-22.574417-8.843586l-5.818148 23.272595c9.541764 2.559985 19.083528 5.818149 28.392565 9.541764V324.651974h-24.901676v23.039869h24.901676v40.261589h23.738047v-40.261589h23.039869v-23.039869h-23.039869v-37.236152c6.283601 3.490889 12.334475 6.981779 18.38535 10.705393z m11.636298 26.298033h19.54898c-4.189067 9.076312-8.378134 16.988994-13.032653 23.738047l17.687172 7.214504c4.654519-7.679956 9.076312-16.058091 12.799927-25.134403l-13.498105-5.818148h37.236152c-3.723615 9.77449-7.912682 18.38535-12.567201 25.83258l17.687172 7.214505c4.654519-8.378134 8.61086-17.454446 12.101749-27.228937l-13.498105-5.818148h23.272595c5.119971 10.93812 9.77449 23.505321 13.963557 37.93433-27.461662-4.421793-60.276021-6.749053-98.443077-6.749053l-7.214504 20.945336c48.406998 0 89.134039 3.258163 122.41385 9.309038l10.239942-17.687173c-7.912682-2.094534-16.290817-3.956341-25.367129-5.585423l19.781706-5.352696a235.518662 235.518662 0 0 0-13.730831-32.814359h14.661735v-20.945336h-77.497742c-0.698178-4.421793-1.16363-8.843586-1.629082-13.032653h84.246794v-21.410788h-87.737683c-0.930904-4.189067-1.629082-8.378134-2.559985-12.334475h77.963193v-18.618076c-4.887245-11.869023-12.567201-22.341691-23.272595-31.650729 11.636298-4.654519 24.901677-8.378134 39.563412-10.705394l-10.93812-21.643513c-18.850802 4.189067-35.141619 10.239942-49.105176 18.152624-13.265379-7.44723-29.090744-13.730831-47.476093-18.850802l-11.170846 20.479883c14.894461 3.025437 27.927114 6.981779 39.09796 11.636298-8.843586 7.214504-16.290817 15.359913-22.341692 24.203499-0.232726-0.232726-0.232726-0.465452-0.232726-0.698178-7.912682-20.479884-19.781706-38.865234-35.60707-55.15605l-14.429009 18.850802c13.730831 13.963557 24.203499 29.556196 31.185277 46.777916 3.258163 8.61086 6.050875 18.38535 8.378135 29.556195h-27.927114v21.410788h31.650729c0.465452 4.421793 1.16363 8.843586 1.629082 13.032653h-25.832581v20.945336z m73.308674-107.752115c8.378134 6.050875 14.894461 12.799927 19.781706 20.247157h-42.821575c6.516327-7.912682 14.196283-14.661735 23.039869-20.247157z"  horiz-adv-x="1152" />

    
    <glyph glyph-name="Group34Copy7" unicode="&#58907;" d="M11.558567-0.908358L503.040865 854.115147c32.639815 55.842592 113.279356 55.842592 145.919171 0l491.482299-855.023505c32.639815-55.842592-7.679956-127.091642-72.959586-127.091642H84.518153c-65.279629 0-105.5994 71.24905-72.959586 127.091642zM53.926326 3.350526L532.597061 832.16909c21.236243 38.551054 77.206834 38.551054 98.443077 0l478.670735-828.818564A56.796768 56.796768 0 0 0 1059.523522-81.45481H104.113678a56.796768 56.796768 0 0 0-50.187352 84.805336zM128.002996 11.63557l447.997455 767.995637L1023.997905 11.63557zM377.019763 353.975443l21.643514-6.050874c-6.516327-28.858018-14.894461-53.99242-24.901677-75.86866l-21.410787 7.679956c9.309038 19.54898 17.687172 44.217931 24.66895 74.239578z m139.868297 0.232726l21.178061-10.239942c-13.032653-25.367129-28.392566-47.476094-46.079738-66.094169L473.833759 290.906711c16.756268 17.687172 30.952551 38.632508 43.054301 63.301458z m-86.80678 34.443441h24.668951v-76.799564c7.44723-48.406998 39.330686-87.737683 95.650365-117.759331L535.506136 174.543736c-45.614286 25.599855-76.566838 60.276021-92.624929 103.795773-12.567201-40.261589-43.054301-75.170482-91.228572-104.959403l-14.894461 19.54898c58.879665 33.279811 90.064943 72.843222 93.323106 118.92296v76.799564z m154.634758-7.912682h25.367128v8.843586h20.014432v-8.843586h19.316254v8.843586h20.014432v-8.843586h26.065306v-17.221721h-26.065306v-8.145408h-20.014432v8.145408h-19.316254v-8.145408h-12.799927c-0.465452-1.396356-0.698178-2.559985-0.930904-3.490889h72.610497v-8.61086c11.869023 12.101749 19.781706 27.927114 23.970772 47.243368l21.87624-3.723616c-0.930904-3.258163-1.629082-6.516327-2.559986-9.541764h51.897887v-19.548979h-12.567201c-3.025437-13.498105-8.145408-25.134403-15.359913-34.908893 9.076312-5.119971 20.014432-9.541764 32.814359-13.265379l-10.938119-19.083528c-14.661735 4.887245-26.99621 10.705394-37.236152 17.454446-10.93812-7.912682-24.203499-13.498105-39.796138-17.22172l-8.843586 19.54898c12.567201 2.559985 23.272595 6.516327 31.650729 11.636297-4.654519 4.887245-8.61086 10.007216-11.403571 15.359913-3.723615-4.654519-7.912682-8.843586-12.10175-12.567201l-11.636297 14.661734c-0.465452-20.945336-2.32726-33.977989-5.585423-39.330685-0.930904-1.396356-1.861808-2.559985-3.025438-3.490889l10.93812 1.629081c1.861808-3.956341 3.956341-8.378134 5.818149-13.032653h88.668587v-16.988994h-202.238851V285.088562h90.064943c-1.16363 2.32726-2.32726 4.421793-3.723615 6.283601-2.559985-0.465452-5.119971-0.698178-7.447231-0.930904h-9.541764l-1.629081 5.352697h-49.337902v27.228936c-3.490889-4.189067-7.214504-8.145408-11.170845-11.403572l-12.799928 15.825365c9.77449 7.912682 16.523542 18.850802 20.247158 32.348907l12.101749-2.094533v5.818148h-25.367128v17.221721z m68.654155-75.170482h4.421793c3.723615 0.465452 6.283601 2.32726 7.447231 5.818148 0.930904 3.723615 1.396356 11.869023 1.629081 24.901677h-56.785132c-1.396356-2.32726-2.559985-4.654519-3.723615-6.749052h47.010642v-23.970773z m-17.687172 2.094533v9.77449h-16.290817v-9.77449h16.290817z m89.134039 50.03608c-0.465452-0.698178-0.698178-1.396356-0.930904-1.861808 3.025437-7.912682 8.145408-14.894461 15.127187-21.178062 5.585423 6.749053 9.77449 14.429009 12.101749 23.03987h-26.298032z m-113.337538-96.58127h147.780979v-13.730831h-147.780979v13.730831z m0-20.945335h147.780979v-13.730832h-147.780979v13.730832z m156.624565-21.87624v-46.54519h-23.505321v6.050875h-117.759331v-6.050875h-23.738047v46.54519h165.002699z m-141.264652-25.134402h117.759331v9.774489h-117.759331v-9.774489z"  horiz-adv-x="1152" />

    
    <glyph glyph-name="Group34Copy6" unicode="&#58908;" d="M11.558567-0.908358L503.040865 854.115147c32.639815 55.842592 113.279356 55.842592 145.919171 0l491.482299-855.023505c32.639815-55.842592-7.679956-127.091642-72.959586-127.091642H84.518153c-65.279629 0-105.5994 71.24905-72.959586 127.091642zM53.926326 3.350526L532.597061 832.16909c21.236243 38.551054 77.206834 38.551054 98.443077 0l478.670735-828.818564A56.796768 56.796768 0 0 0 1059.523522-81.45481H104.113678a56.796768 56.796768 0 0 0-50.187352 84.805336zM128.002996 11.63557l447.997455 767.995637L1023.997905 11.63557zM377.019763 353.975443l21.643514-6.050874c-6.516327-28.858018-14.894461-53.99242-24.901677-75.86866l-21.410787 7.679956c9.309038 19.54898 17.687172 44.217931 24.66895 74.239578z m139.868297 0.232726l21.178061-10.239942c-13.032653-25.367129-28.392566-47.476094-46.079738-66.094169L473.833759 290.906711c16.756268 17.687172 30.952551 38.632508 43.054301 63.301458z m-86.80678 34.443441h24.668951v-76.799564c7.44723-48.406998 39.330686-87.737683 95.650365-117.759331L535.506136 174.543736c-45.614286 25.599855-76.566838 60.276021-92.624929 103.795773-12.567201-40.261589-43.054301-75.170482-91.228572-104.959403l-14.894461 19.54898c58.879665 33.279811 90.064943 72.843222 93.323106 118.92296v76.799564z m154.634758-7.912682h25.367128v8.843586h20.014432v-8.843586h19.316254v8.843586h20.014432v-8.843586h26.065306v-17.221721h-26.065306v-8.145408h-20.014432v8.145408h-19.316254v-8.145408h-12.799927c-0.465452-1.396356-0.698178-2.559985-0.930904-3.490889h72.610497v-8.61086c11.869023 12.101749 19.781706 27.927114 23.970772 47.243368l21.87624-3.723616c-0.930904-3.258163-1.629082-6.516327-2.559986-9.541764h51.897887v-19.548979h-12.567201c-3.025437-13.498105-8.145408-25.134403-15.359913-34.908893 9.076312-5.119971 20.014432-9.541764 32.814359-13.265379l-10.938119-19.083528c-14.661735 4.887245-26.99621 10.705394-37.236152 17.454446-10.93812-7.912682-24.203499-13.498105-39.796138-17.22172l-8.843586 19.54898c12.567201 2.559985 23.272595 6.516327 31.650729 11.636297-4.654519 4.887245-8.61086 10.007216-11.403571 15.359913-3.723615-4.654519-7.912682-8.843586-12.10175-12.567201l-11.636297 14.661734c-0.465452-20.945336-2.32726-33.977989-5.585423-39.330685-0.930904-1.396356-1.861808-2.559985-3.025438-3.490889l10.93812 1.629081c1.861808-3.956341 3.956341-8.378134 5.818149-13.032653h88.668587v-16.988994h-202.238851V285.088562h90.064943c-1.16363 2.32726-2.32726 4.421793-3.723615 6.283601-2.559985-0.465452-5.119971-0.698178-7.447231-0.930904h-9.541764l-1.629081 5.352697h-49.337902v27.228936c-3.490889-4.189067-7.214504-8.145408-11.170845-11.403572l-12.799928 15.825365c9.77449 7.912682 16.523542 18.850802 20.247158 32.348907l12.101749-2.094533v5.818148h-25.367128v17.221721z m68.654155-75.170482h4.421793c3.723615 0.465452 6.283601 2.32726 7.447231 5.818148 0.930904 3.723615 1.396356 11.869023 1.629081 24.901677h-56.785132c-1.396356-2.32726-2.559985-4.654519-3.723615-6.749052h47.010642v-23.970773z m-17.687172 2.094533v9.77449h-16.290817v-9.77449h16.290817z m89.134039 50.03608c-0.465452-0.698178-0.698178-1.396356-0.930904-1.861808 3.025437-7.912682 8.145408-14.894461 15.127187-21.178062 5.585423 6.749053 9.77449 14.429009 12.101749 23.03987h-26.298032z m-113.337538-96.58127h147.780979v-13.730831h-147.780979v13.730831z m0-20.945335h147.780979v-13.730832h-147.780979v13.730832z m156.624565-21.87624v-46.54519h-23.505321v6.050875h-117.759331v-6.050875h-23.738047v46.54519h165.002699z m-141.264652-25.134402h117.759331v9.774489h-117.759331v-9.774489z"  horiz-adv-x="1152" />

    
    <glyph glyph-name="Group34Copy8" unicode="&#58910;" d="M11.558567-0.908358L503.040865 854.115147c32.639815 55.842592 113.279356 55.842592 145.919171 0l491.482299-855.023505c32.639815-55.842592-7.679956-127.091642-72.959586-127.091642H84.518153c-65.279629 0-105.5994 71.24905-72.959586 127.091642zM53.926326 3.350526L532.597061 832.16909c21.236243 38.551054 77.206834 38.551054 98.443077 0l478.670735-828.818564A56.796768 56.796768 0 0 0 1059.523522-81.45481H104.113678a56.796768 56.796768 0 0 0-50.187352 84.805336zM128.002996 11.63557l447.997455 767.995637L1023.997905 11.63557zM377.019763 353.975443l21.643514-6.050874c-6.516327-28.858018-14.894461-53.99242-24.901677-75.86866l-21.410787 7.679956c9.309038 19.54898 17.687172 44.217931 24.66895 74.239578z m139.868297 0.232726l21.178061-10.239942c-13.032653-25.367129-28.392566-47.476094-46.079738-66.094169L473.833759 290.906711c16.756268 17.687172 30.952551 38.632508 43.054301 63.301458z m-86.80678 34.443441h24.668951v-76.799564c7.44723-48.406998 39.330686-87.737683 95.650365-117.759331L535.506136 174.543736c-45.614286 25.599855-76.566838 60.276021-92.624929 103.795773-12.567201-40.261589-43.054301-75.170482-91.228572-104.959403l-14.894461 19.54898c58.879665 33.279811 90.064943 72.843222 93.323106 118.92296v76.799564z m154.634758-7.912682h25.367128v8.843586h20.014432v-8.843586h19.316254v8.843586h20.014432v-8.843586h26.065306v-17.221721h-26.065306v-8.145408h-20.014432v8.145408h-19.316254v-8.145408h-12.799927c-0.465452-1.396356-0.698178-2.559985-0.930904-3.490889h72.610497v-8.61086c11.869023 12.101749 19.781706 27.927114 23.970772 47.243368l21.87624-3.723616c-0.930904-3.258163-1.629082-6.516327-2.559986-9.541764h51.897887v-19.548979h-12.567201c-3.025437-13.498105-8.145408-25.134403-15.359913-34.908893 9.076312-5.119971 20.014432-9.541764 32.814359-13.265379l-10.938119-19.083528c-14.661735 4.887245-26.99621 10.705394-37.236152 17.454446-10.93812-7.912682-24.203499-13.498105-39.796138-17.22172l-8.843586 19.54898c12.567201 2.559985 23.272595 6.516327 31.650729 11.636297-4.654519 4.887245-8.61086 10.007216-11.403571 15.359913-3.723615-4.654519-7.912682-8.843586-12.10175-12.567201l-11.636297 14.661734c-0.465452-20.945336-2.32726-33.977989-5.585423-39.330685-0.930904-1.396356-1.861808-2.559985-3.025438-3.490889l10.93812 1.629081c1.861808-3.956341 3.956341-8.378134 5.818149-13.032653h88.668587v-16.988994h-202.238851V285.088562h90.064943c-1.16363 2.32726-2.32726 4.421793-3.723615 6.283601-2.559985-0.465452-5.119971-0.698178-7.447231-0.930904h-9.541764l-1.629081 5.352697h-49.337902v27.228936c-3.490889-4.189067-7.214504-8.145408-11.170845-11.403572l-12.799928 15.825365c9.77449 7.912682 16.523542 18.850802 20.247158 32.348907l12.101749-2.094533v5.818148h-25.367128v17.221721z m68.654155-75.170482h4.421793c3.723615 0.465452 6.283601 2.32726 7.447231 5.818148 0.930904 3.723615 1.396356 11.869023 1.629081 24.901677h-56.785132c-1.396356-2.32726-2.559985-4.654519-3.723615-6.749052h47.010642v-23.970773z m-17.687172 2.094533v9.77449h-16.290817v-9.77449h16.290817z m89.134039 50.03608c-0.465452-0.698178-0.698178-1.396356-0.930904-1.861808 3.025437-7.912682 8.145408-14.894461 15.127187-21.178062 5.585423 6.749053 9.77449 14.429009 12.101749 23.03987h-26.298032z m-113.337538-96.58127h147.780979v-13.730831h-147.780979v13.730831z m0-20.945335h147.780979v-13.730832h-147.780979v13.730832z m156.624565-21.87624v-46.54519h-23.505321v6.050875h-117.759331v-6.050875h-23.738047v46.54519h165.002699z m-141.264652-25.134402h117.759331v9.774489h-117.759331v-9.774489z"  horiz-adv-x="1152" />

    
    <glyph glyph-name="Group34Copy" unicode="&#58911;" d="M11.558567-0.908358L503.040865 854.115147c32.639815 55.842592 113.279356 55.842592 145.919171 0l491.482299-855.023505c32.639815-55.842592-7.679956-127.091642-72.959586-127.091642H84.518153c-65.279629 0-105.5994 71.24905-72.959586 127.091642zM53.926326 3.350526L532.597061 832.16909c21.236243 38.551054 77.206834 38.551054 98.443077 0l478.670735-828.818564A56.796768 56.796768 0 0 0 1059.523522-81.45481H104.113678a56.796768 56.796768 0 0 0-50.187352 84.805336zM128.002996 11.63557l447.997455 767.995637L1023.997905 11.63557zM377.019763 353.975443l21.643514-6.050874c-6.516327-28.858018-14.894461-53.99242-24.901677-75.86866l-21.410787 7.679956c9.309038 19.54898 17.687172 44.217931 24.66895 74.239578z m139.868297 0.232726l21.178061-10.239942c-13.032653-25.367129-28.392566-47.476094-46.079738-66.094169L473.833759 290.906711c16.756268 17.687172 30.952551 38.632508 43.054301 63.301458z m-86.80678 34.443441h24.668951v-76.799564c7.44723-48.406998 39.330686-87.737683 95.650365-117.759331L535.506136 174.543736c-45.614286 25.599855-76.566838 60.276021-92.624929 103.795773-12.567201-40.261589-43.054301-75.170482-91.228572-104.959403l-14.894461 19.54898c58.879665 33.279811 90.064943 72.843222 93.323106 118.92296v76.799564z m154.634758-7.912682h25.367128v8.843586h20.014432v-8.843586h19.316254v8.843586h20.014432v-8.843586h26.065306v-17.221721h-26.065306v-8.145408h-20.014432v8.145408h-19.316254v-8.145408h-12.799927c-0.465452-1.396356-0.698178-2.559985-0.930904-3.490889h72.610497v-8.61086c11.869023 12.101749 19.781706 27.927114 23.970772 47.243368l21.87624-3.723616c-0.930904-3.258163-1.629082-6.516327-2.559986-9.541764h51.897887v-19.548979h-12.567201c-3.025437-13.498105-8.145408-25.134403-15.359913-34.908893 9.076312-5.119971 20.014432-9.541764 32.814359-13.265379l-10.938119-19.083528c-14.661735 4.887245-26.99621 10.705394-37.236152 17.454446-10.93812-7.912682-24.203499-13.498105-39.796138-17.22172l-8.843586 19.54898c12.567201 2.559985 23.272595 6.516327 31.650729 11.636297-4.654519 4.887245-8.61086 10.007216-11.403571 15.359913-3.723615-4.654519-7.912682-8.843586-12.10175-12.567201l-11.636297 14.661734c-0.465452-20.945336-2.32726-33.977989-5.585423-39.330685-0.930904-1.396356-1.861808-2.559985-3.025438-3.490889l10.93812 1.629081c1.861808-3.956341 3.956341-8.378134 5.818149-13.032653h88.668587v-16.988994h-202.238851V285.088562h90.064943c-1.16363 2.32726-2.32726 4.421793-3.723615 6.283601-2.559985-0.465452-5.119971-0.698178-7.447231-0.930904h-9.541764l-1.629081 5.352697h-49.337902v27.228936c-3.490889-4.189067-7.214504-8.145408-11.170845-11.403572l-12.799928 15.825365c9.77449 7.912682 16.523542 18.850802 20.247158 32.348907l12.101749-2.094533v5.818148h-25.367128v17.221721z m68.654155-75.170482h4.421793c3.723615 0.465452 6.283601 2.32726 7.447231 5.818148 0.930904 3.723615 1.396356 11.869023 1.629081 24.901677h-56.785132c-1.396356-2.32726-2.559985-4.654519-3.723615-6.749052h47.010642v-23.970773z m-17.687172 2.094533v9.77449h-16.290817v-9.77449h16.290817z m89.134039 50.03608c-0.465452-0.698178-0.698178-1.396356-0.930904-1.861808 3.025437-7.912682 8.145408-14.894461 15.127187-21.178062 5.585423 6.749053 9.77449 14.429009 12.101749 23.03987h-26.298032z m-113.337538-96.58127h147.780979v-13.730831h-147.780979v13.730831z m0-20.945335h147.780979v-13.730832h-147.780979v13.730832z m156.624565-21.87624v-46.54519h-23.505321v6.050875h-117.759331v-6.050875h-23.738047v46.54519h165.002699z m-141.264652-25.134402h117.759331v9.774489h-117.759331v-9.774489z"  horiz-adv-x="1152" />

    
    <glyph glyph-name="Group34Copy9" unicode="&#58913;" d="M11.558567-0.908358L503.040865 854.115147c32.639815 55.842592 113.279356 55.842592 145.919171 0l491.482299-855.023505c32.639815-55.842592-7.679956-127.091642-72.959586-127.091642H84.518153c-65.279629 0-105.5994 71.24905-72.959586 127.091642zM53.926326 3.350526L532.597061 832.16909c21.236243 38.551054 77.206834 38.551054 98.443077 0l478.670735-828.818564A56.796768 56.796768 0 0 0 1059.523522-81.45481H104.113678a56.796768 56.796768 0 0 0-50.187352 84.805336zM128.002996 11.63557l447.997455 767.995637L1023.997905 11.63557zM377.019763 353.975443l21.643514-6.050874c-6.516327-28.858018-14.894461-53.99242-24.901677-75.86866l-21.410787 7.679956c9.309038 19.54898 17.687172 44.217931 24.66895 74.239578z m139.868297 0.232726l21.178061-10.239942c-13.032653-25.367129-28.392566-47.476094-46.079738-66.094169L473.833759 290.906711c16.756268 17.687172 30.952551 38.632508 43.054301 63.301458z m-86.80678 34.443441h24.668951v-76.799564c7.44723-48.406998 39.330686-87.737683 95.650365-117.759331L535.506136 174.543736c-45.614286 25.599855-76.566838 60.276021-92.624929 103.795773-12.567201-40.261589-43.054301-75.170482-91.228572-104.959403l-14.894461 19.54898c58.879665 33.279811 90.064943 72.843222 93.323106 118.92296v76.799564z m154.634758-7.912682h25.367128v8.843586h20.014432v-8.843586h19.316254v8.843586h20.014432v-8.843586h26.065306v-17.221721h-26.065306v-8.145408h-20.014432v8.145408h-19.316254v-8.145408h-12.799927c-0.465452-1.396356-0.698178-2.559985-0.930904-3.490889h72.610497v-8.61086c11.869023 12.101749 19.781706 27.927114 23.970772 47.243368l21.87624-3.723616c-0.930904-3.258163-1.629082-6.516327-2.559986-9.541764h51.897887v-19.548979h-12.567201c-3.025437-13.498105-8.145408-25.134403-15.359913-34.908893 9.076312-5.119971 20.014432-9.541764 32.814359-13.265379l-10.938119-19.083528c-14.661735 4.887245-26.99621 10.705394-37.236152 17.454446-10.93812-7.912682-24.203499-13.498105-39.796138-17.22172l-8.843586 19.54898c12.567201 2.559985 23.272595 6.516327 31.650729 11.636297-4.654519 4.887245-8.61086 10.007216-11.403571 15.359913-3.723615-4.654519-7.912682-8.843586-12.10175-12.567201l-11.636297 14.661734c-0.465452-20.945336-2.32726-33.977989-5.585423-39.330685-0.930904-1.396356-1.861808-2.559985-3.025438-3.490889l10.93812 1.629081c1.861808-3.956341 3.956341-8.378134 5.818149-13.032653h88.668587v-16.988994h-202.238851V285.088562h90.064943c-1.16363 2.32726-2.32726 4.421793-3.723615 6.283601-2.559985-0.465452-5.119971-0.698178-7.447231-0.930904h-9.541764l-1.629081 5.352697h-49.337902v27.228936c-3.490889-4.189067-7.214504-8.145408-11.170845-11.403572l-12.799928 15.825365c9.77449 7.912682 16.523542 18.850802 20.247158 32.348907l12.101749-2.094533v5.818148h-25.367128v17.221721z m68.654155-75.170482h4.421793c3.723615 0.465452 6.283601 2.32726 7.447231 5.818148 0.930904 3.723615 1.396356 11.869023 1.629081 24.901677h-56.785132c-1.396356-2.32726-2.559985-4.654519-3.723615-6.749052h47.010642v-23.970773z m-17.687172 2.094533v9.77449h-16.290817v-9.77449h16.290817z m89.134039 50.03608c-0.465452-0.698178-0.698178-1.396356-0.930904-1.861808 3.025437-7.912682 8.145408-14.894461 15.127187-21.178062 5.585423 6.749053 9.77449 14.429009 12.101749 23.03987h-26.298032z m-113.337538-96.58127h147.780979v-13.730831h-147.780979v13.730831z m0-20.945335h147.780979v-13.730832h-147.780979v13.730832z m156.624565-21.87624v-46.54519h-23.505321v6.050875h-117.759331v-6.050875h-23.738047v46.54519h165.002699z m-141.264652-25.134402h117.759331v9.774489h-117.759331v-9.774489z"  horiz-adv-x="1152" />

    
    <glyph glyph-name="Group35Copy2" unicode="&#58914;" d="M11.558567-0.908358L503.040865 854.115147c32.639815 55.842592 113.279356 55.842592 145.919171 0l491.482299-855.023505c32.639815-55.842592-7.679956-127.091642-72.959586-127.091642H84.518153c-65.279629 0-105.5994 71.24905-72.959586 127.091642zM53.926326 3.350526L532.597061 832.16909c21.236243 38.551054 77.206834 38.551054 98.443077 0l478.670735-828.818564A56.796768 56.796768 0 0 0 1059.523522-81.45481H104.113678a56.796768 56.796768 0 0 0-50.187352 84.805336zM128.002996 11.63557l447.997455 767.995637L1023.997905 11.63557zM482.910071 332.564656l-2.792712-10.007216c4.887245-22.341691 11.170846-41.890671 18.618076-58.879665 7.214504 20.014432 11.403572 43.054301 12.334476 68.886881H482.910071z m-14.894461-43.054301c-3.025437-6.283601-6.283601-12.101749-9.541764-17.687172l-15.359913 19.316254c13.032653 24.668951 21.876239 57.716036 26.530759 99.373981l23.272595-4.189068c-1.396356-10.705394-3.025437-20.71261-4.654519-30.254373h56.785132v-23.505321h-11.170846c-1.396356-37.236152-8.378134-69.119607-21.178062-95.650366 11.170846-17.919898 24.203499-31.883455 39.09796-41.890671l-14.894461-21.643513c-13.963557 10.239942-26.298032 23.970773-37.003426 41.192493-11.636298-16.988994-26.065306-31.418003-43.287027-43.054301l-13.730831 22.341691c18.152624 11.170846 32.814359 26.065306 43.985205 44.450657-7.214504 15.359913-13.498105 32.348907-18.850802 51.199709zM356.307154 314.179306c9.541764-14.661735 16.988994-27.461662 22.341691-38.399782l-16.988994-11.869023c-6.050875 11.636298-13.963557 24.668951-23.738047 38.632507l18.38535 11.636298z m50.036079-70.981415v-43.519753c0-16.756268-7.679956-25.367129-22.574417-25.367128H361.892577l-5.352697 23.272595c6.516327-0.930904 12.799927-1.629082 18.850802-1.629082 4.654519 0 7.214504 3.258163 7.214504 9.77449v35.60707c-11.636298-13.032653-24.901677-24.901677-39.796137-35.60707l-9.77449 22.341691c18.618076 10.93812 35.141619 23.738047 49.570627 38.399782v61.206925h-44.916108v23.272595h44.916108v37.468878h23.738047v-37.468878h39.09796v-23.272595h-39.09796V267.634116c16.290817-11.170846 32.581633-23.970773 48.87245-38.399782l-13.730831-20.479884c-13.963557 14.429009-25.83258 26.065306-35.141619 34.443441z m18.850802 75.403208l19.083528-9.541764c-5.119971-15.359913-11.170846-28.858018-18.152624-40.26159l-16.523543 11.636298c6.050875 10.705394 11.170846 23.505321 15.592639 38.167056z m-0.232726 71.912319c10.705394-7.44723 19.54898-14.894461 26.99621-22.341692l-15.359912-15.359912c-6.050875 7.44723-14.894461 15.127187-26.298033 23.505321l14.661735 14.196283z m250.517849-13.963557V237.379742c4.654519 1.629082 9.076312 3.258163 13.730832 4.654519v-23.272595c-30.719825-11.170846-65.861444-21.178061-105.657582-30.487099l-6.749053 23.272595 15.592639 3.490889V376.549861h83.083164z m-58.646939-155.693661c12.101749 3.025437 23.505321 6.050875 34.443441 9.076312v24.436225h-34.443441v-33.512537z m0 55.388776h34.443441v28.858018h-34.443441v-28.858018z m0 50.501531h34.443441v27.694388h-34.443441v-27.694388z m93.323106 61.206925h24.668951v-40.959767h50.268805c0-78.661371-1.16363-127.301095-3.490889-145.686445-2.792711-17.22172-14.894461-25.83258-36.537974-25.832581-3.723615 0-10.239942 0.465452-19.083528 1.16363l-5.818149 21.178062c8.145408-0.465452 15.127187-0.930904 21.178061-0.930904 9.77449 0 15.592639 5.119971 16.988995 15.359913 1.396356 10.705394 2.094534 47.941546 2.559985 111.708456h-26.065306v-5.119971c-0.698178-67.025074-16.523542-115.897523-47.476094-147.082801l-19.54898 16.988995c27.694388 26.99621 41.890671 70.283237 42.356123 130.093806v5.119971h-25.367129v23.039869h25.367129v40.959767z"  horiz-adv-x="1152" />

    
    <glyph glyph-name="Group32Copy" unicode="&#58916;" d="M11.558567-0.908358L503.040865 854.115147c32.639815 55.842592 113.279356 55.842592 145.919171 0l491.482299-855.023505c32.639815-55.842592-7.679956-127.091642-72.959586-127.091642H84.518153c-65.279629 0-105.5994 71.24905-72.959586 127.091642zM53.926326 3.350526L532.597061 832.16909c21.236243 38.551054 77.206834 38.551054 98.443077 0l478.670735-828.818564A56.796768 56.796768 0 0 0 1059.523522-81.45481H104.113678a56.796768 56.796768 0 0 0-50.187352 84.805336zM128.002996 11.63557l447.997455 767.995637L1023.997905 11.63557zM482.910071 332.564656l-2.792712-10.007216c4.887245-22.341691 11.170846-41.890671 18.618076-58.879665 7.214504 20.014432 11.403572 43.054301 12.334476 68.886881H482.910071z m-14.894461-43.054301c-3.025437-6.283601-6.283601-12.101749-9.541764-17.687172l-15.359913 19.316254c13.032653 24.668951 21.876239 57.716036 26.530759 99.373981l23.272595-4.189068c-1.396356-10.705394-3.025437-20.71261-4.654519-30.254373h56.785132v-23.505321h-11.170846c-1.396356-37.236152-8.378134-69.119607-21.178062-95.650366 11.170846-17.919898 24.203499-31.883455 39.09796-41.890671l-14.894461-21.643513c-13.963557 10.239942-26.298032 23.970773-37.003426 41.192493-11.636298-16.988994-26.065306-31.418003-43.287027-43.054301l-13.730831 22.341691c18.152624 11.170846 32.814359 26.065306 43.985205 44.450657-7.214504 15.359913-13.498105 32.348907-18.850802 51.199709zM356.307154 314.179306c9.541764-14.661735 16.988994-27.461662 22.341691-38.399782l-16.988994-11.869023c-6.050875 11.636298-13.963557 24.668951-23.738047 38.632507l18.38535 11.636298z m50.036079-70.981415v-43.519753c0-16.756268-7.679956-25.367129-22.574417-25.367128H361.892577l-5.352697 23.272595c6.516327-0.930904 12.799927-1.629082 18.850802-1.629082 4.654519 0 7.214504 3.258163 7.214504 9.77449v35.60707c-11.636298-13.032653-24.901677-24.901677-39.796137-35.60707l-9.77449 22.341691c18.618076 10.93812 35.141619 23.738047 49.570627 38.399782v61.206925h-44.916108v23.272595h44.916108v37.468878h23.738047v-37.468878h39.09796v-23.272595h-39.09796V267.634116c16.290817-11.170846 32.581633-23.970773 48.87245-38.399782l-13.730831-20.479884c-13.963557 14.429009-25.83258 26.065306-35.141619 34.443441z m18.850802 75.403208l19.083528-9.541764c-5.119971-15.359913-11.170846-28.858018-18.152624-40.26159l-16.523543 11.636298c6.050875 10.705394 11.170846 23.505321 15.592639 38.167056z m-0.232726 71.912319c10.705394-7.44723 19.54898-14.894461 26.99621-22.341692l-15.359912-15.359912c-6.050875 7.44723-14.894461 15.127187-26.298033 23.505321l14.661735 14.196283z m222.125283-92.392203v-24.203499c-6.283601-3.490889-12.334475-6.749053-18.38535-10.007215v-65.163267c0-14.661735-7.912682-22.108965-23.272595-22.108965h-20.479883l-5.119971 22.574417c6.050875-0.930904 11.869023-1.396356 17.454446-1.396355 5.119971 0 7.679956 2.32726 7.679956 6.749052V252.506929c-7.44723-3.025437-15.127187-6.050875-22.574417-8.843586l-5.818148 23.272595c9.541764 2.559985 19.083528 5.818149 28.392565 9.541764V324.651974h-24.901676v23.039869h24.901676v40.261589h23.738047v-40.261589h23.039869v-23.039869h-23.039869v-37.236152c6.283601 3.490889 12.334475 6.981779 18.38535 10.705393z m11.636298 26.298033h19.54898c-4.189067 9.076312-8.378134 16.988994-13.032653 23.738047l17.687172 7.214504c4.654519-7.679956 9.076312-16.058091 12.799927-25.134403l-13.498105-5.818148h37.236152c-3.723615 9.77449-7.912682 18.38535-12.567201 25.83258l17.687172 7.214505c4.654519-8.378134 8.61086-17.454446 12.101749-27.228937l-13.498105-5.818148h23.272595c5.119971 10.93812 9.77449 23.505321 13.963557 37.93433-27.461662-4.421793-60.276021-6.749053-98.443077-6.749053l-7.214504 20.945336c48.406998 0 89.134039 3.258163 122.41385 9.309038l10.239942-17.687173c-7.912682-2.094534-16.290817-3.956341-25.367129-5.585423l19.781706-5.352696a235.518662 235.518662 0 0 0-13.730831-32.814359h14.661735v-20.945336h-77.497742c-0.698178-4.421793-1.16363-8.843586-1.629082-13.032653h84.246794v-21.410788h-87.737683c-0.930904-4.189067-1.629082-8.378134-2.559985-12.334475h77.963193v-18.618076c-4.887245-11.869023-12.567201-22.341691-23.272595-31.650729 11.636298-4.654519 24.901677-8.378134 39.563412-10.705394l-10.93812-21.643513c-18.850802 4.189067-35.141619 10.239942-49.105176 18.152624-13.265379-7.44723-29.090744-13.730831-47.476093-18.850802l-11.170846 20.479883c14.894461 3.025437 27.927114 6.981779 39.09796 11.636298-8.843586 7.214504-16.290817 15.359913-22.341692 24.203499-0.232726-0.232726-0.232726-0.465452-0.232726-0.698178-7.912682-20.479884-19.781706-38.865234-35.60707-55.15605l-14.429009 18.850802c13.730831 13.963557 24.203499 29.556196 31.185277 46.777916 3.258163 8.61086 6.050875 18.38535 8.378135 29.556195h-27.927114v21.410788h31.650729c0.465452 4.421793 1.16363 8.843586 1.629082 13.032653h-25.832581v20.945336z m73.308674-107.752115c8.378134 6.050875 14.894461 12.799927 19.781706 20.247157h-42.821575c6.516327-7.912682 14.196283-14.661735 23.039869-20.247157z"  horiz-adv-x="1152" />

    
    <glyph glyph-name="Group32Copy4" unicode="&#58917;" d="M11.558567-0.908358L503.040865 854.115147c32.639815 55.842592 113.279356 55.842592 145.919171 0l491.482299-855.023505c32.639815-55.842592-7.679956-127.091642-72.959586-127.091642H84.518153c-65.279629 0-105.5994 71.24905-72.959586 127.091642zM53.926326 3.350526L532.597061 832.16909c21.236243 38.551054 77.206834 38.551054 98.443077 0l478.670735-828.818564A56.796768 56.796768 0 0 0 1059.523522-81.45481H104.113678a56.796768 56.796768 0 0 0-50.187352 84.805336zM128.002996 11.63557l447.997455 767.995637L1023.997905 11.63557zM482.910071 332.564656l-2.792712-10.007216c4.887245-22.341691 11.170846-41.890671 18.618076-58.879665 7.214504 20.014432 11.403572 43.054301 12.334476 68.886881H482.910071z m-14.894461-43.054301c-3.025437-6.283601-6.283601-12.101749-9.541764-17.687172l-15.359913 19.316254c13.032653 24.668951 21.876239 57.716036 26.530759 99.373981l23.272595-4.189068c-1.396356-10.705394-3.025437-20.71261-4.654519-30.254373h56.785132v-23.505321h-11.170846c-1.396356-37.236152-8.378134-69.119607-21.178062-95.650366 11.170846-17.919898 24.203499-31.883455 39.09796-41.890671l-14.894461-21.643513c-13.963557 10.239942-26.298032 23.970773-37.003426 41.192493-11.636298-16.988994-26.065306-31.418003-43.287027-43.054301l-13.730831 22.341691c18.152624 11.170846 32.814359 26.065306 43.985205 44.450657-7.214504 15.359913-13.498105 32.348907-18.850802 51.199709zM356.307154 314.179306c9.541764-14.661735 16.988994-27.461662 22.341691-38.399782l-16.988994-11.869023c-6.050875 11.636298-13.963557 24.668951-23.738047 38.632507l18.38535 11.636298z m50.036079-70.981415v-43.519753c0-16.756268-7.679956-25.367129-22.574417-25.367128H361.892577l-5.352697 23.272595c6.516327-0.930904 12.799927-1.629082 18.850802-1.629082 4.654519 0 7.214504 3.258163 7.214504 9.77449v35.60707c-11.636298-13.032653-24.901677-24.901677-39.796137-35.60707l-9.77449 22.341691c18.618076 10.93812 35.141619 23.738047 49.570627 38.399782v61.206925h-44.916108v23.272595h44.916108v37.468878h23.738047v-37.468878h39.09796v-23.272595h-39.09796V267.634116c16.290817-11.170846 32.581633-23.970773 48.87245-38.399782l-13.730831-20.479884c-13.963557 14.429009-25.83258 26.065306-35.141619 34.443441z m18.850802 75.403208l19.083528-9.541764c-5.119971-15.359913-11.170846-28.858018-18.152624-40.26159l-16.523543 11.636298c6.050875 10.705394 11.170846 23.505321 15.592639 38.167056z m-0.232726 71.912319c10.705394-7.44723 19.54898-14.894461 26.99621-22.341692l-15.359912-15.359912c-6.050875 7.44723-14.894461 15.127187-26.298033 23.505321l14.661735 14.196283z m222.125283-92.392203v-24.203499c-6.283601-3.490889-12.334475-6.749053-18.38535-10.007215v-65.163267c0-14.661735-7.912682-22.108965-23.272595-22.108965h-20.479883l-5.119971 22.574417c6.050875-0.930904 11.869023-1.396356 17.454446-1.396355 5.119971 0 7.679956 2.32726 7.679956 6.749052V252.506929c-7.44723-3.025437-15.127187-6.050875-22.574417-8.843586l-5.818148 23.272595c9.541764 2.559985 19.083528 5.818149 28.392565 9.541764V324.651974h-24.901676v23.039869h24.901676v40.261589h23.738047v-40.261589h23.039869v-23.039869h-23.039869v-37.236152c6.283601 3.490889 12.334475 6.981779 18.38535 10.705393z m11.636298 26.298033h19.54898c-4.189067 9.076312-8.378134 16.988994-13.032653 23.738047l17.687172 7.214504c4.654519-7.679956 9.076312-16.058091 12.799927-25.134403l-13.498105-5.818148h37.236152c-3.723615 9.77449-7.912682 18.38535-12.567201 25.83258l17.687172 7.214505c4.654519-8.378134 8.61086-17.454446 12.101749-27.228937l-13.498105-5.818148h23.272595c5.119971 10.93812 9.77449 23.505321 13.963557 37.93433-27.461662-4.421793-60.276021-6.749053-98.443077-6.749053l-7.214504 20.945336c48.406998 0 89.134039 3.258163 122.41385 9.309038l10.239942-17.687173c-7.912682-2.094534-16.290817-3.956341-25.367129-5.585423l19.781706-5.352696a235.518662 235.518662 0 0 0-13.730831-32.814359h14.661735v-20.945336h-77.497742c-0.698178-4.421793-1.16363-8.843586-1.629082-13.032653h84.246794v-21.410788h-87.737683c-0.930904-4.189067-1.629082-8.378134-2.559985-12.334475h77.963193v-18.618076c-4.887245-11.869023-12.567201-22.341691-23.272595-31.650729 11.636298-4.654519 24.901677-8.378134 39.563412-10.705394l-10.93812-21.643513c-18.850802 4.189067-35.141619 10.239942-49.105176 18.152624-13.265379-7.44723-29.090744-13.730831-47.476093-18.850802l-11.170846 20.479883c14.894461 3.025437 27.927114 6.981779 39.09796 11.636298-8.843586 7.214504-16.290817 15.359913-22.341692 24.203499-0.232726-0.232726-0.232726-0.465452-0.232726-0.698178-7.912682-20.479884-19.781706-38.865234-35.60707-55.15605l-14.429009 18.850802c13.730831 13.963557 24.203499 29.556196 31.185277 46.777916 3.258163 8.61086 6.050875 18.38535 8.378135 29.556195h-27.927114v21.410788h31.650729c0.465452 4.421793 1.16363 8.843586 1.629082 13.032653h-25.832581v20.945336z m73.308674-107.752115c8.378134 6.050875 14.894461 12.799927 19.781706 20.247157h-42.821575c6.516327-7.912682 14.196283-14.661735 23.039869-20.247157z"  horiz-adv-x="1152" />

    


  </font>
</defs>
</svg>
